<?xml version="1.0" encoding="UTF-8"?>
<svg width="30px" height="30px" viewBox="0 0 30 30" version="1.1" xmlns="http://www.w3.org/2000/svg" xmlns:xlink="http://www.w3.org/1999/xlink">
    <title>codepen</title>
    <g id="Page-1" stroke="none" stroke-width="1" fill="none" fill-rule="evenodd">
        <g id="Desktop-Copy" transform="translate(-362.000000, -217.000000)">
            <g id="codepen" transform="translate(362.000000, 217.000000)">
                <rect id="Rectangle" x="0" y="0" width="30" height="30"></rect>
                <circle id="Oval" stroke="#F9DCDC" stroke-width="2" cx="15" cy="15" r="14"></circle>
                <path d="M18.5952283,14.1540382 L15.6736829,12.1152015 L15.6736829,8.83525721 L20.9537521,12.5081161 L18.5952283,14.1540382 Z M19.807224,15.0000275 L21.493332,13.8232671 L21.493332,16.1765676 L19.807224,15.0000275 Z M15.6736829,17.8848536 L18.5952283,15.8460169 L20.9537521,17.491939 L15.6736829,21.1647979 L15.6736829,17.8848536 Z M11.4045605,15.8460169 L14.3261059,17.8848536 L14.3261059,21.1647979 L9.04624787,17.491939 L11.4045605,15.8460169 Z M10.1925648,15.0000275 L8.50666796,16.1765676 L8.50666796,13.8232671 L10.1925648,15.0000275 Z M14.3261059,12.1152015 L11.4045605,14.1540382 L9.04624787,12.5081161 L14.3261059,8.83525721 L14.3261059,12.1152015 Z M15,16.6633586 L12.6165562,15.0000275 L15,13.3364761 L17.3834438,15.0000275 L15,16.6633586 Z M22.8295051,12.3849309 C22.8259149,12.3648775 22.8227471,12.3452648 22.8176786,12.3258725 C22.8145109,12.314193 22.8107095,12.3031747 22.8071194,12.2917156 C22.8018397,12.2745269 22.7965601,12.2573383 22.7898021,12.24037 C22.785156,12.2289109 22.7798764,12.2174519 22.7748079,12.2062131 C22.7676276,12.1903467 22.7602361,12.1747006 22.7517887,12.1594953 C22.7456643,12.1482566 22.7391175,12.137679 22.7325707,12.126881 C22.7234897,12.1123367 22.7141976,12.0980129 22.7040606,12.0841297 C22.6966691,12.0739929 22.6890664,12.063856 22.6810414,12.0539394 C22.6704821,12.0407174 22.6590781,12.0281565 22.6474628,12.0158159 C22.638593,12.0063401 22.6297232,11.9970847 22.6206422,11.98827 C22.6083934,11.976811 22.5955111,11.9657926 22.5824176,11.9549946 C22.5722807,11.946841 22.5623549,11.9384671 22.5517956,11.9309746 C22.5482055,11.9281098 22.5446153,11.9248043 22.540814,11.9221599 L15.3735878,6.93635369 C15.1474077,6.77879119 14.8523811,6.77879119 14.626201,6.93635369 L7.45918603,11.9221599 C7.4551735,11.9248043 7.45179453,11.9281098 7.44799318,11.9309746 C7.43743389,11.9384671 7.42750815,11.946841 7.41737123,11.9549946 C7.40448889,11.9657926 7.39139537,11.976811 7.37935777,11.98827 C7.3700656,11.9970847 7.36119579,12.0063401 7.35253717,12.0158159 C7.34071076,12.0281565 7.32951791,12.0407174 7.31874743,12.0539394 C7.31072237,12.063856 7.30311967,12.0739929 7.29572817,12.0841297 C7.28559125,12.0980129 7.27629907,12.1123367 7.26721808,12.126881 C7.26067131,12.137679 7.25412455,12.1482566 7.24821135,12.1594953 C7.23955273,12.1747006 7.23216122,12.1903467 7.22519209,12.2062131 C7.22012363,12.2174519 7.21463279,12.2289109 7.21019789,12.24037 C7.20365113,12.2573383 7.19794911,12.2745269 7.19266946,12.2917156 C7.1890793,12.3031747 7.18527796,12.314193 7.18232136,12.3258725 C7.17746408,12.3452648 7.17387392,12.3648775 7.17049495,12.3849309 C7.16880546,12.3950678 7.16648241,12.4049843 7.16500411,12.4151212 C7.16120277,12.4455318 7.15909091,12.4761629 7.15909091,12.5070143 L7.15909091,17.4928205 C7.15909091,17.5238922 7.16120277,17.5543029 7.16500411,17.5847136 C7.16648241,17.5950708 7.16880546,17.6049873 7.17049495,17.6151242 C7.17387392,17.6347369 7.17746408,17.6545699 7.18232136,17.6739622 C7.18527796,17.6856417 7.1890793,17.6968804 7.19266946,17.7081192 C7.19794911,17.7255282 7.20365113,17.7427168 7.21019789,17.7596851 C7.21463279,17.7713645 7.22012363,17.7823829 7.22519209,17.7936216 C7.23216122,17.809488 7.23955273,17.8251341 7.24821135,17.8405598 C7.25412455,17.8515781 7.26067131,17.8623761 7.26721808,17.8727334 C7.27629907,17.887498 7.28559125,17.9016015 7.29572817,17.915705 C7.30311967,17.9262826 7.31072237,17.9361991 7.31874743,17.9461156 C7.32951791,17.9591173 7.34071076,17.9718986 7.35253717,17.9840188 C7.36119579,17.9932742 7.3700656,18.00275 7.37935777,18.0113443 C7.39139537,18.0230238 7.40448889,18.0342625 7.41737123,18.0450605 C7.42750815,18.0532141 7.43743389,18.0613677 7.44799318,18.0690805 C7.45179453,18.0719453 7.4551735,18.0750304 7.45918603,18.0776748 L14.626201,23.063481 C14.7393966,23.1423725 14.8694871,23.1818182 15,23.1818182 C15.1303017,23.1818182 15.2606034,23.1423725 15.3735878,23.063481 L22.540814,18.0776748 C22.5446153,18.0750304 22.5482055,18.0719453 22.5517956,18.0690805 C22.5623549,18.0613677 22.5722807,18.0532141 22.5824176,18.0450605 C22.5955111,18.0342625 22.6083934,18.0230238 22.6206422,18.0113443 C22.6297232,18.00275 22.638593,17.9932742 22.6474628,17.9840188 C22.6590781,17.9718986 22.6704821,17.9591173 22.6810414,17.9461156 C22.6890664,17.9361991 22.6966691,17.9262826 22.7040606,17.915705 C22.7141976,17.9016015 22.7234897,17.887498 22.7325707,17.8727334 C22.7391175,17.8623761 22.7456643,17.8515781 22.7517887,17.8405598 C22.7602361,17.8251341 22.7676276,17.809488 22.7748079,17.7936216 C22.7798764,17.7823829 22.785156,17.7713645 22.7898021,17.7596851 C22.7965601,17.7427168 22.8018397,17.7255282 22.8071194,17.7081192 C22.8107095,17.6968804 22.8145109,17.6856417 22.8176786,17.6739622 C22.8227471,17.6545699 22.8259149,17.6347369 22.8295051,17.6151242 C22.8311945,17.6049873 22.8335176,17.5950708 22.8347847,17.5847136 C22.838586,17.5543029 22.8409091,17.5238922 22.8409091,17.4928205 L22.8409091,12.5070143 C22.8409091,12.4761629 22.838586,12.4455318 22.8347847,12.4151212 C22.8335176,12.4049843 22.8311945,12.3950678 22.8295051,12.3849309 L22.8295051,12.3849309 Z" id="Shape" fill="#F8DCDC"></path>
            </g>
        </g>
    </g>
</svg>