<?xml version="1.0" encoding="UTF-8"?>
<svg width="30px" height="30px" viewBox="0 0 30 30" version="1.1" xmlns="http://www.w3.org/2000/svg" xmlns:xlink="http://www.w3.org/1999/xlink">
    <title>linkedin</title>
    <g id="Page-1" stroke="none" stroke-width="1" fill="none" fill-rule="evenodd">
        <g id="Desktop-Copy" transform="translate(-416.000000, -217.000000)">
            <g id="linkedin" transform="translate(416.000000, 217.000000)">
                <rect id="Rectangle" x="0" y="0" width="30" height="30"></rect>
                <circle id="Oval" stroke="#F9DCDC" stroke-width="2" cx="15" cy="15" r="14"></circle>
                <path d="M8.86363636,12.2727273 L10.9090909,12.2727273 L10.9090909,20.4545455 L8.86363636,20.4545455 L8.86363636,12.2727273 Z M9.53867703,10.9090909 L9.52241099,10.9090909 C8.70910898,10.9090909 8.18181818,10.3082166 8.18181818,9.54730681 C8.18181818,8.77083796 8.72469727,8.18181818 9.55426532,8.18181818 C10.3831556,8.18181818 10.8928249,8.76935615 10.9090909,9.54508409 C10.9090909,10.3059939 10.3831556,10.9090909 9.53867703,10.9090909 L9.53867703,10.9090909 Z M19.7727273,20.4545455 L17.2644977,20.4545455 L17.2644977,16.2605235 C17.2644977,15.1629439 16.872149,14.4144205 16.0093821,14.4144205 C15.3494621,14.4144205 14.9824693,14.9192919 14.8116508,15.4073596 C14.7475938,15.5815059 14.7576027,15.8251579 14.7576027,16.0695736 L14.7576027,20.4545455 L12.2727273,20.4545455 C12.2727273,20.4545455 12.3047557,13.0258334 12.2727273,12.3506348 L14.7576027,12.3506348 L14.7576027,13.6223606 C14.9043999,13.0663148 15.698439,12.2727273 16.9655654,12.2727273 C18.5376294,12.2727273 19.7727273,13.4390488 19.7727273,15.9481295 L19.7727273,20.4545455 L19.7727273,20.4545455 Z" id="Shape" fill="#F8DCDC"></path>
            </g>
        </g>
    </g>
</svg>